<?xml version="1.0" standalone="no"?><!-- Generator: Gravit.io --><svg xmlns="http://www.w3.org/2000/svg" xmlns:xlink="http://www.w3.org/1999/xlink" style="isolation:isolate" viewBox="0 0 241 93" width="241" height="93"><defs><clipPath id="_clipPath_e6yWT8Vo5BbCMbgqSSHGCmfXL5ApjnrE"><rect width="241" height="93"/></clipPath></defs><g clip-path="url(#_clipPath_e6yWT8Vo5BbCMbgqSSHGCmfXL5ApjnrE)"><path d=" M -46.744 46.5 C -46.744 -45.805 28.195 -120.744 120.5 -120.744 C 212.805 -120.744 287.744 -45.805 287.744 46.5 C 287.744 138.805 212.805 213.744 120.5 213.744 C 28.195 213.744 -46.744 138.805 -46.744 46.5 Z " fill="none"/><path d=" M 162.515 17.671 L 233.7 17.671 C 237.847 17.671 241.214 21.038 241.214 25.186 L 241.214 66.553 C 241.214 70.701 237.847 74.068 233.7 74.068 L 162.515 74.068 C 158.368 74.068 155.001 70.701 155.001 66.553 L 155.001 25.186 C 155.001 21.038 158.368 17.671 162.515 17.671 Z " fill="rgb(74,134,232)"/><path d=" M 11.715 -1.325 L 176.651 -1.325 C 183.235 -1.325 188.581 4.02 188.581 10.604 L 188.581 79.989 C 188.581 86.573 183.235 91.919 176.651 91.919 L 11.715 91.919 C 5.131 91.919 -0.214 86.573 -0.214 79.989 L -0.214 10.604 C -0.214 4.02 5.131 -1.325 11.715 -1.325 Z  M 9.69 46.888 C 9.69 37.94 16.767 30.676 25.484 30.676 C 34.2 30.676 41.277 37.94 41.277 46.888 C 41.277 55.835 34.2 63.1 25.484 63.1 C 16.767 63.1 9.69 55.835 9.69 46.888 Z " fill-rule="evenodd" fill="rgb(74,134,232)"/><path d=" M 85.819 46.5 C 85.819 31.587 97.613 19.48 112.14 19.48 C 126.668 19.48 138.462 31.587 138.462 46.5 C 138.462 61.413 126.668 73.52 112.14 73.52 C 97.613 73.52 85.819 61.413 85.819 46.5 Z " fill="rgb(255,255,204)"/><rect x="188.581" y="21.774" width="48.617" height="10.808" transform="matrix(1,0,0,1,0,0)" fill="rgb(255,255,204)"/><rect x="189.819" y="59.602" width="47.379" height="10.808" transform="matrix(1,0,0,1,0,0)" fill="rgb(255,255,204)"/><rect x="196.477" y="34.489" width="35.3" height="10.808" transform="matrix(1,0,0,1,0,0)" fill="rgb(255,255,204)"/><rect x="195.858" y="46.888" width="35.3" height="10.808" transform="matrix(1,0,0,1,0,0)" fill="rgb(255,255,204)"/><rect x="187.343" y="17.671" width="12.849" height="56.397" transform="matrix(1,0,0,1,0,0)" fill="rgb(74,134,232)"/><path d=" M 10.589 46.888 C 10.589 38.283 17.575 31.297 26.18 31.297 C 34.784 31.297 41.77 38.283 41.77 46.888 C 41.77 55.492 34.784 62.478 26.18 62.478 C 17.575 62.478 10.589 55.492 10.589 46.888 Z " fill="none" vector-effect="non-scaling-stroke" stroke-width="3" stroke="rgb(255,255,204)" stroke-opacity="100" stroke-linejoin="miter" stroke-linecap="square" stroke-miterlimit="3"/></g></svg>